<?xml version="1.0" encoding="UTF-8"?>
<svg xmlns="http://www.w3.org/2000/svg" xmlns:xlink="http://www.w3.org/1999/xlink" width="500px"
    height="px" viewBox="0 0 500 500" version="1.1">
    <path fill="#fff"
        d="M 250 437.5 L 219.792969 410.417969 C 184.722656 378.820312 155.730469 351.5625 132.8125 328.644531 C 109.894531 305.730469 91.667969 285.15625 78.125 266.925781 C 64.582031 248.699219 55.121094 231.945312 49.738281 216.667969 C 44.359375 201.390625 41.667969 185.765625 41.667969 169.792969 C 41.667969 137.152344 52.605469 109.894531 74.480469 88.019531 C 96.355469 66.144531 123.609375 55.207031 156.25 55.207031 C 174.304688 55.207031 191.492188 59.027344 207.8125 66.667969 C 224.132812 74.304688 238.195312 85.070312 250 98.957031 C 261.804688 85.070312 275.867188 74.304688 292.1875 66.667969 C 308.507812 59.027344 325.695312 55.207031 343.75 55.207031 C 376.390625 55.207031 403.644531 66.144531 425.519531 88.019531 C 447.394531 109.894531 458.332031 137.152344 458.332031 169.792969 C 458.332031 185.765625 455.640625 201.390625 450.261719 216.667969 C 444.878906 231.945312 435.417969 248.699219 421.875 266.925781 C 408.332031 285.15625 390.105469 305.730469 367.1875 328.644531 C 344.269531 351.5625 315.277344 378.820312 280.207031 410.417969 Z M 250 381.25 C 283.332031 351.390625 310.765625 325.78125 332.292969 304.425781 C 353.820312 283.074219 370.832031 264.496094 383.332031 248.699219 C 395.832031 232.898438 404.515625 218.835938 409.375 206.511719 C 414.234375 194.183594 416.667969 181.945312 416.667969 169.792969 C 416.667969 148.957031 409.722656 131.597656 395.832031 117.707031 C 381.945312 103.820312 364.582031 96.875 343.75 96.875 C 327.429688 96.875 312.328125 101.476562 298.4375 110.675781 C 284.546875 119.878906 275 131.597656 269.792969 145.832031 L 230.207031 145.832031 C 225 131.597656 215.453125 119.878906 201.5625 110.675781 C 187.671875 101.476562 172.570312 96.875 156.25 96.875 C 135.417969 96.875 118.054688 103.820312 104.167969 117.707031 C 90.277344 131.597656 83.332031 148.957031 83.332031 169.792969 C 83.332031 181.945312 85.765625 194.183594 90.625 206.511719 C 95.484375 218.835938 104.167969 232.898438 116.667969 248.699219 C 129.167969 264.496094 146.179688 283.074219 167.707031 304.425781 C 189.234375 325.78125 216.667969 351.390625 250 381.25 Z M 250 239.0625 Z M 250 239.0625 " />
</svg>